<svg xmlns="http://www.w3.org/2000/svg" width="192" height="192" viewBox="0 0 192 192">
  <defs>
    <linearGradient id="bg192" x1="0%" y1="0%" x2="100%" y2="100%">
      <stop offset="0%" style="stop-color:#1a73e8"/>
      <stop offset="100%" style="stop-color:#1557b0"/>
    </linearGradient>
  </defs>
  <!-- Background with rounded corners -->
  <rect width="192" height="192" rx="32" ry="32" fill="url(#bg192)"/>
  <!-- Wrench icon -->
  <g transform="translate(96,96)" fill="none" stroke="#ffffff" stroke-width="8" stroke-linecap="round" stroke-linejoin="round">
    <!-- Wrench body -->
    <path d="M-38,-38 L-18,-18" stroke-width="10"/>
    <path d="M-18,-18 L18,18" stroke-width="10"/>
    <path d="M18,18 L38,38" stroke-width="10"/>
    <!-- Wrench head (top-left) -->
    <path d="M-50,-26 A20,20 0 0,1 -26,-50 L-38,-38 Z" fill="#ffffff" stroke="none"/>
    <!-- Wrench jaw opening (top-left) -->
    <path d="M-50,-26 A20,20 0 0,1 -26,-50" stroke="#1a73e8" stroke-width="5" fill="none"/>
    <!-- Wrench head (bottom-right) -->
    <circle cx="42" cy="42" r="14" fill="#ffffff" stroke="none"/>
    <circle cx="42" cy="42" r="6" fill="#1a73e8" stroke="none"/>
  </g>
  <!-- Small building/hotel accent -->
  <g transform="translate(96, 145)">
    <rect x="-20" y="-10" width="40" height="14" rx="2" fill="rgba(255,255,255,0.5)"/>
    <rect x="-14" y="-7" width="6" height="6" rx="1" fill="rgba(255,255,255,0.8)"/>
    <rect x="-3" y="-7" width="6" height="6" rx="1" fill="rgba(255,255,255,0.8)"/>
    <rect x="8" y="-7" width="6" height="6" rx="1" fill="rgba(255,255,255,0.8)"/>
  </g>
</svg>
