<svg xmlns="http://www.w3.org/2000/svg" width="512" height="512" viewBox="0 0 512 512">
  <defs>
    <linearGradient id="bg512" x1="0%" y1="0%" x2="100%" y2="100%">
      <stop offset="0%" style="stop-color:#1a73e8"/>
      <stop offset="100%" style="stop-color:#1557b0"/>
    </linearGradient>
  </defs>
  <!-- Background with rounded corners -->
  <rect width="512" height="512" rx="85" ry="85" fill="url(#bg512)"/>
  <!-- Wrench icon -->
  <g transform="translate(256,256)" fill="none" stroke="#ffffff" stroke-width="22" stroke-linecap="round" stroke-linejoin="round">
    <!-- Wrench body -->
    <path d="M-102,-102 L-48,-48" stroke-width="26"/>
    <path d="M-48,-48 L48,48" stroke-width="26"/>
    <path d="M48,48 L102,102" stroke-width="26"/>
    <!-- Wrench head (top-left) -->
    <path d="M-134,-70 A54,54 0 0,1 -70,-134 L-102,-102 Z" fill="#ffffff" stroke="none"/>
    <!-- Wrench jaw opening (top-left) -->
    <path d="M-134,-70 A54,54 0 0,1 -70,-134" stroke="#1a73e8" stroke-width="14" fill="none"/>
    <!-- Wrench head (bottom-right) -->
    <circle cx="112" cy="112" r="38" fill="#ffffff" stroke="none"/>
    <circle cx="112" cy="112" r="16" fill="#1a73e8" stroke="none"/>
  </g>
  <!-- Small building/hotel accent -->
  <g transform="translate(256, 390)">
    <rect x="-54" y="-26" width="108" height="38" rx="5" fill="rgba(255,255,255,0.5)"/>
    <rect x="-38" y="-18" width="16" height="16" rx="2" fill="rgba(255,255,255,0.8)"/>
    <rect x="-8" y="-18" width="16" height="16" rx="2" fill="rgba(255,255,255,0.8)"/>
    <rect x="22" y="-18" width="16" height="16" rx="2" fill="rgba(255,255,255,0.8)"/>
  </g>
</svg>
